<svg width="1584" height="396" viewBox="0 0 1584 396" fill="none" xmlns="http://www.w3.org/2000/svg">
<rect width="1584" height="396" fill="#F5F5F5"/>
<g id="Awesome banner" clip-path="url(#clip0_0_1)">
<rect width="1584" height="396" fill="url(#paint0_linear_0_1)"/>
<ellipse id="Ellipse 2" cx="323" cy="64" rx="285" ry="288" fill="url(#paint1_linear_0_1)" fill-opacity="0.1"/>
<g id="copyright">
<path d="M75.95 334.52L72.30 334.52L72.30 311.16L77.20 311.16L83.70 330.04Q83.60 329.02 83.50 327.62Q83.41 326.23 83.33 324.79Q83.25 323.35 83.25 322.23L83.25 311.16L86.90 311.16L86.90 334.52L82 334.52L75.57 315.64Q75.63 316.57 75.73 317.88Q75.82 319.19 75.89 320.57Q75.95 321.94 75.95 323.10L75.95 334.52M98.80 334.84Q96.46 334.84 94.67 333.96Q92.88 333.08 91.89 331.53Q90.90 329.98 90.90 327.93Q90.90 325.78 92.13 324.18Q93.36 322.58 95.34 322.17L95.34 322.10Q93.65 321.75 92.61 320.38Q91.57 319 91.57 317.11Q91.57 315.26 92.48 313.85Q93.39 312.44 95.02 311.64Q96.66 310.84 98.80 310.84Q100.94 310.84 102.59 311.64Q104.24 312.44 105.15 313.85Q106.06 315.26 106.06 317.11Q106.06 319 105.01 320.38Q103.95 321.75 102.26 322.10L102.26 322.17Q104.24 322.58 105.47 324.18Q106.70 325.78 106.70 327.93Q106.70 329.98 105.71 331.53Q104.72 333.08 102.93 333.96Q101.14 334.84 98.80 334.84M98.80 320.73Q100.30 320.73 101.23 319.82Q102.16 318.90 102.16 317.46Q102.16 315.99 101.23 315.08Q100.30 314.17 98.80 314.17Q97.30 314.17 96.37 315.08Q95.44 315.99 95.44 317.46Q95.44 318.90 96.37 319.82Q97.30 320.73 98.80 320.73M98.80 331.45Q100.56 331.45 101.68 330.42Q102.80 329.40 102.80 327.74Q102.80 326.04 101.68 325Q100.56 323.96 98.80 323.96Q97.04 323.96 95.92 325Q94.80 326.04 94.80 327.74Q94.80 329.40 95.92 330.42Q97.04 331.45 98.80 331.45M114.35 334.52L110.70 334.52L110.70 311.16L115.60 311.16L122.10 330.04Q122 329.02 121.90 327.62Q121.81 326.23 121.73 324.79Q121.65 323.35 121.65 322.23L121.65 311.16L125.30 311.16L125.30 334.52L120.40 334.52L113.97 315.64Q114.03 316.57 114.13 317.88Q114.22 319.19 114.29 320.57Q114.35 321.94 114.35 323.10" fill="white" fill-opacity="0.9"/>
<path d="M161.48 325.24L151.24 325.24L151.24 322.68L161.48 322.68" fill="white" fill-opacity="0.9"/>
<path d="M195.02 334.84Q191.82 334.84 189.96 333.05Q188.11 331.26 188.11 328.12L188.11 317.56Q188.11 314.42 189.96 312.63Q191.82 310.84 195.02 310.84Q198.15 310.84 200.01 312.65Q201.87 314.46 201.87 317.56L198.99 317.56Q198.99 315.58 197.95 314.50Q196.91 313.43 195.02 313.43Q193.13 313.43 192.06 314.50Q190.99 315.58 190.99 317.56L190.99 328.12Q190.99 330.10 192.06 331.18Q193.13 332.25 195.02 332.25Q196.91 332.25 197.95 331.18Q198.99 330.10 198.99 328.12L201.87 328.12Q201.87 331.22 200.01 333.03Q198.15 334.84 195.02 334.84" fill="white" fill-opacity="0.9"/>
<path d="M213.96 334.84Q210.83 334.84 209 333.02Q207.18 331.19 207.18 327.80L207.18 317.88Q207.18 314.49 209 312.66Q210.83 310.84 213.96 310.84Q217.10 310.84 218.92 312.66Q220.75 314.49 220.75 317.85L220.75 327.80Q220.75 331.19 218.92 333.02Q217.10 334.84 213.96 334.84M213.96 332.25Q215.85 332.25 216.86 331.18Q217.87 330.10 217.87 328.12L217.87 317.56Q217.87 315.58 216.86 314.50Q215.85 313.43 213.96 313.43Q212.11 313.43 211.08 314.50Q210.06 315.58 210.06 317.56L210.06 328.12Q210.06 330.10 211.08 331.18Q212.11 332.25 213.96 332.25" fill="white" fill-opacity="0.9"/>
<path d="M228.65 334.52L225.87 334.52L225.87 311.16L230.12 311.16L233.10 321.27L236.20 311.16L240.46 311.16L240.46 334.52L237.67 334.52L237.67 323.48Q237.67 321.91 237.72 319.88Q237.77 317.85 237.87 315.77Q237.96 313.69 238.09 312.02L234.31 324.09L231.82 324.09L228.20 312.31Q228.46 314.68 228.55 317.50Q228.65 320.31 228.65 323.48" fill="white" fill-opacity="0.9"/>
<path d="M247.85 334.52L245.07 334.52L245.07 311.16L249.32 311.16L252.30 321.27L255.40 311.16L259.66 311.16L259.66 334.52L256.87 334.52L256.87 323.48Q256.87 321.91 256.92 319.88Q256.97 317.85 257.07 315.77Q257.16 313.69 257.29 312.02L253.51 324.09L251.02 324.09L247.40 312.31Q247.66 314.68 247.75 317.50Q247.85 320.31 247.85 323.48" fill="white" fill-opacity="0.9"/>
<path d="M271.56 334.84Q268.30 334.84 266.57 333.03Q264.84 331.22 264.84 328.12L264.84 311.16L267.72 311.16L267.72 328.12Q267.72 330.04 268.67 331.16Q269.61 332.28 271.56 332.28Q273.48 332.28 274.44 331.16Q275.40 330.04 275.40 328.12L275.40 311.16L278.28 311.16L278.28 328.12Q278.28 331.26 276.57 333.05Q274.86 334.84 271.56 334.84" fill="white" fill-opacity="0.9"/>
<path d="M286.83 334.52L284.04 334.52L284.04 311.16L287.88 311.16L295.02 331.16Q294.95 330.36 294.87 329.19Q294.79 328.02 294.75 326.73Q294.70 325.43 294.70 324.28L294.70 311.16L297.48 311.16L297.48 334.52L293.64 334.52L286.54 314.52Q286.60 315.29 286.67 316.46Q286.73 317.62 286.78 318.92Q286.83 320.22 286.83 321.40" fill="white" fill-opacity="0.9"/>
<path d="M316.20 334.52L303.72 334.52L303.72 331.90L308.49 331.90L308.49 313.78L303.72 313.78L303.72 311.16L316.20 311.16L316.20 313.78L311.43 313.78L311.43 331.90L316.20 331.90" fill="white" fill-opacity="0.9"/>
<path d="M330.60 334.52L327.72 334.52L327.72 313.78L321.32 313.78L321.32 311.16L337 311.16L337 313.78L330.60 313.78" fill="white" fill-opacity="0.9"/>
<path d="M349.80 334.52L346.92 334.52L346.92 325.78L339.88 311.16L342.95 311.16L347.50 320.76Q347.88 321.56 348.11 322.12Q348.33 322.68 348.39 322.94Q348.46 322.68 348.70 322.12Q348.94 321.56 349.32 320.76L353.87 311.16L356.84 311.16L349.80 325.78" fill="white" fill-opacity="0.9"/>
<path d="M382.83 334.52L380.04 334.52L380.04 311.16L383.88 311.16L391.02 331.16Q390.95 330.36 390.87 329.19Q390.79 328.02 390.75 326.73Q390.70 325.43 390.70 324.28L390.70 311.16L393.48 311.16L393.48 334.52L389.64 334.52L382.54 314.52Q382.60 315.29 382.67 316.46Q382.73 317.62 382.78 318.92Q382.83 320.22 382.83 321.40" fill="white" fill-opacity="0.9"/>
<path d="M405.96 334.84Q402.83 334.84 401 333.02Q399.18 331.19 399.18 327.80L399.18 317.88Q399.18 314.49 401 312.66Q402.83 310.84 405.96 310.84Q409.10 310.84 410.92 312.66Q412.75 314.49 412.75 317.85L412.75 327.80Q412.75 331.19 410.92 333.02Q409.10 334.84 405.96 334.84M405.96 332.25Q407.85 332.25 408.86 331.18Q409.87 330.10 409.87 328.12L409.87 317.56Q409.87 315.58 408.86 314.50Q407.85 313.43 405.96 313.43Q404.11 313.43 403.08 314.50Q402.06 315.58 402.06 317.56L402.06 328.12Q402.06 330.10 403.08 331.18Q404.11 332.25 405.96 332.25" fill="white" fill-opacity="0.9"/>
<path d="M424.55 334.52L418.51 334.52L418.51 311.16L424.55 311.16Q426.83 311.16 428.47 312.02Q430.12 312.89 431.03 314.46Q431.95 316.02 431.95 318.17L431.95 327.48Q431.95 329.62 431.03 331.21Q430.12 332.79 428.47 333.66Q426.83 334.52 424.55 334.52M421.39 313.72L421.39 331.96L424.55 331.96Q426.67 331.96 427.87 330.78Q429.07 329.59 429.07 327.48L429.07 318.17Q429.07 316.09 427.87 314.90Q426.67 313.72 424.55 313.72" fill="white" fill-opacity="0.9"/>
<path d="M451.40 334.52L437.96 334.52L437.96 311.16L451.40 311.16L451.40 313.78L440.81 313.78L440.81 321.02L450.28 321.02L450.28 323.58L440.81 323.58L440.81 331.90L451.40 331.90" fill="white" fill-opacity="0.9"/>
<path d="M463.69 334.84Q460.30 334.84 458.28 333.05Q456.27 331.26 456.27 328.12L459.15 328.12Q459.15 330.07 460.39 331.18Q461.64 332.28 463.69 332.28Q465.67 332.28 466.86 331.13Q468.04 329.98 468.04 328.12Q468.04 326.71 467.29 325.67Q466.54 324.63 465.13 324.25L461.58 323.26Q459.37 322.62 458.11 320.97Q456.84 319.32 456.84 317.08Q456.84 315.22 457.67 313.82Q458.51 312.41 460.01 311.62Q461.51 310.84 463.47 310.84Q465.45 310.84 466.97 311.62Q468.49 312.41 469.35 313.80Q470.22 315.19 470.22 317.02L467.34 317.02Q467.34 315.42 466.25 314.41Q465.16 313.40 463.47 313.40Q461.77 313.40 460.71 314.41Q459.66 315.42 459.66 317.02Q459.66 318.30 460.35 319.21Q461.03 320.12 462.28 320.47L465.93 321.50Q468.27 322.14 469.56 323.91Q470.86 325.69 470.86 328.12Q470.86 331.19 468.91 333.02Q466.95 334.84 463.69 334.84" fill="white" fill-opacity="0.9"/>
</g>
<path d="M73.41 197.64L71.20 197.64L75.76 180.12L78.66 180.12L83.20 197.64L81.02 197.64L79.86 192.98L74.56 192.98L73.41 197.64M76.34 185.74L74.99 191.16L79.41 191.16L78.06 185.76Q77.68 184.22 77.46 183.19Q77.25 182.16 77.20 181.85Q77.15 182.16 76.94 183.19Q76.72 184.22 76.34 185.74" fill="white" fill-opacity="0.7"/>
<path d="M88.77 197.64L86.61 197.64L86.61 180.12L92.25 180.12Q94.70 180.12 96.15 181.52Q97.60 182.93 97.60 185.28Q97.60 187.63 96.15 189.04Q94.70 190.44 92.25 190.44L88.77 190.44L88.77 197.64M88.77 182.06L88.77 188.50L92.25 188.50Q93.66 188.50 94.52 187.62Q95.37 186.74 95.37 185.28Q95.37 183.79 94.52 182.93Q93.66 182.06 92.25 182.06" fill="white" fill-opacity="0.7"/>
<path d="M110.68 197.64L101.32 197.64L101.32 195.67L104.90 195.67L104.90 182.09L101.32 182.09L101.32 180.12L110.68 180.12L110.68 182.09L107.10 182.09L107.10 195.67L110.68 195.67" fill="white" fill-opacity="0.7"/>
<path d="M139.96 197.64L136.12 197.64Q134.49 197.64 133.50 196.69Q132.52 195.74 132.52 194.16L132.52 186.41L128.73 186.41L128.73 184.44L132.52 184.44L132.52 180.72L134.68 180.72L134.68 184.44L140.08 184.44L140.08 186.41L134.68 186.41L134.68 194.16Q134.68 194.83 135.08 195.25Q135.47 195.67 136.12 195.67L139.96 195.67" fill="white" fill-opacity="0.7"/>
<path d="M146.37 197.64L144.21 197.64L144.21 180.12L146.37 180.12L146.37 186.96L146.39 186.96Q146.56 185.64 147.47 184.92Q148.38 184.20 149.90 184.20Q151.89 184.20 153.06 185.42Q154.24 186.65 154.24 188.76L154.24 197.64L152.08 197.64L152.08 189.12Q152.08 187.63 151.32 186.83Q150.57 186.02 149.27 186.02Q147.93 186.02 147.15 186.86Q146.37 187.70 146.37 189.24" fill="white" fill-opacity="0.7"/>
<path d="M162.45 197.88Q160.41 197.88 159.21 196.74Q158.01 195.60 158.01 193.75Q158.01 192.53 158.56 191.62Q159.11 190.70 160.10 190.19Q161.08 189.67 162.35 189.67L166.43 189.67L166.43 188.64Q166.43 186.07 163.62 186.07Q162.38 186.07 161.61 186.53Q160.84 186.98 160.79 187.80L158.63 187.80Q158.75 186.24 160.08 185.22Q161.42 184.20 163.62 184.20Q166.02 184.20 167.31 185.35Q168.59 186.50 168.59 188.57L168.59 197.64L166.46 197.64L166.46 195.24L166.41 195.24Q166.22 196.46 165.18 197.17Q164.15 197.88 162.45 197.88M162.98 196.06Q164.56 196.06 165.50 195.29Q166.43 194.52 166.43 193.20L166.43 191.35L162.59 191.35Q161.54 191.35 160.88 191.99Q160.22 192.62 160.22 193.68Q160.22 194.78 160.95 195.42Q161.68 196.06 162.98 196.06" fill="white" fill-opacity="0.7"/>
<path d="M183.16 197.64L179.32 197.64Q177.69 197.64 176.70 196.69Q175.72 195.74 175.72 194.16L175.72 186.41L171.93 186.41L171.93 184.44L175.72 184.44L175.72 180.72L177.88 180.72L177.88 184.44L183.28 184.44L183.28 186.41L177.88 186.41L177.88 194.16Q177.88 194.83 178.28 195.25Q178.67 195.67 179.32 195.67L183.16 195.67" fill="white" fill-opacity="0.7"/>
<path d="M205.65 197.88Q203.61 197.88 202.41 196.74Q201.21 195.60 201.21 193.75Q201.21 192.53 201.76 191.62Q202.31 190.70 203.30 190.19Q204.28 189.67 205.55 189.67L209.63 189.67L209.63 188.64Q209.63 186.07 206.82 186.07Q205.58 186.07 204.81 186.53Q204.04 186.98 203.99 187.80L201.83 187.80Q201.95 186.24 203.28 185.22Q204.62 184.20 206.82 184.20Q209.22 184.20 210.51 185.35Q211.79 186.50 211.79 188.57L211.79 197.64L209.66 197.64L209.66 195.24L209.61 195.24Q209.42 196.46 208.38 197.17Q207.35 197.88 205.65 197.88M206.18 196.06Q207.76 196.06 208.70 195.29Q209.63 194.52 209.63 193.20L209.63 191.35L205.79 191.35Q204.74 191.35 204.08 191.99Q203.42 192.62 203.42 193.68Q203.42 194.78 204.15 195.42Q204.88 196.06 206.18 196.06" fill="white" fill-opacity="0.7"/>
<path d="M227.20 197.64L223.12 197.64Q221.37 197.64 220.32 196.62Q219.28 195.60 219.28 193.92L219.28 182.09L214.72 182.09L214.72 180.12L221.44 180.12L221.44 193.92Q221.44 194.74 221.90 195.20Q222.35 195.67 223.12 195.67L227.20 195.67" fill="white" fill-opacity="0.7"/>
<path d="M241.60 197.64L237.52 197.64Q235.77 197.64 234.72 196.62Q233.68 195.60 233.68 193.92L233.68 182.09L229.12 182.09L229.12 180.12L235.84 180.12L235.84 193.92Q235.84 194.74 236.30 195.20Q236.75 195.67 237.52 195.67L241.60 195.67" fill="white" fill-opacity="0.7"/>
<path d="MNaN 197.83Q247.62 197.83 246.22 196.44Q244.82 195.05 244.82 192.55L244.82 189.53Q244.82 187.01 246.21 185.63Q247.60 184.25 NaN 184.25Q252.40 184.25 253.79 185.63Q255.18 187.01 255.18 189.53L255.18 192.55Q255.18 195.05 253.78 196.44Q252.38 197.83 NaN 197.83MNaN 195.91Q251.42 195.91 252.22 195.12Q253.02 194.33 253.02 192.79L253.02 189.29Q253.02 187.75 252.22 186.96Q251.42 186.17 NaN 186.17Q248.61 186.17 247.79 186.96Q246.98 187.75 246.98 189.29L246.98 192.79Q246.98 194.33 247.79 195.12Q248.61 195.91 NaN 195.91" fill="white" fill-opacity="0.7"/>
<path d="M262.48 197.64L260.10 197.64L257.94 184.44L259.82 184.44L261.16 193.75Q261.23 194.28 261.30 194.92Q261.38 195.55 261.40 195.96Q261.45 195.55 261.51 194.92Q261.57 194.28 261.66 193.75L263.32 184.44L265.48 184.44L267.14 193.75Q267.23 194.28 267.32 194.92Q267.40 195.55 267.42 195.96Q267.47 195.55 267.54 194.92Q267.62 194.28 267.69 193.75L269.08 184.44L270.86 184.44L268.60 197.64L266.22 197.64L264.71 188.52Q264.62 187.85 264.53 187.09Q264.45 186.34 264.40 185.93Q264.38 186.34 264.28 187.09Q264.18 187.85 264.06 188.52" fill="white" fill-opacity="0.7"/>
<path d="M279.33 197.83L278.27 197.83Q276.06 197.83 274.85 196.84Q273.64 195.84 273.64 194.02L275.80 194.02Q275.80 194.93 276.45 195.44Q277.10 195.96 278.27 195.96L279.33 195.96Q280.53 195.96 281.19 195.43Q281.85 194.90 281.85 193.94Q281.85 192.24 280.29 192.02L276.64 191.50Q275.30 191.30 274.55 190.38Q273.81 189.46 273.81 187.94Q273.81 186.22 275 185.23Q276.18 184.25 278.27 184.25L279.33 184.25Q281.25 184.25 282.46 185.20Q283.67 186.14 283.77 187.68L281.58 187.68Q281.54 186.98 280.92 186.53Q280.31 186.07 279.33 186.07L278.27 186.07Q277.17 186.07 276.54 186.58Q275.92 187.08 275.92 187.94Q275.92 189.34 277.19 189.53L280.60 190.01Q283.96 190.49 283.96 193.94Q283.96 195.79 282.75 196.81Q281.54 197.83 279.33 197.83" fill="white" fill-opacity="0.7"/>
<path d="M312.59 201.96L310.43 201.96L310.43 198.12L310.48 195.12L310.41 195.12Q310.24 196.39 309.28 197.14Q308.32 197.88 306.83 197.88Q304.84 197.88 303.66 196.56Q302.49 195.24 302.49 192.96L302.49 189.10Q302.49 186.82 303.68 185.51Q304.86 184.20 306.83 184.20Q308.32 184.20 309.28 184.93Q310.24 185.66 310.41 186.96L310.43 186.96L310.43 184.44L312.59 184.44L312.59 201.96M307.55 196.01Q308.90 196.01 309.66 195.17Q310.43 194.33 310.43 192.84L310.43 189.24Q310.43 187.75 309.66 186.91Q308.90 186.07 307.55 186.07Q306.18 186.07 305.42 186.77Q304.65 187.46 304.65 189L304.65 193.08Q304.65 194.62 305.42 195.31Q306.18 196.01 307.55 196.01" fill="white" fill-opacity="0.7"/>
<path d="M321.98 197.88Q319.70 197.88 318.33 196.52Q316.96 195.17 316.96 192.84L316.96 184.44L319.12 184.44L319.12 192.84Q319.12 194.28 319.89 195.13Q320.66 195.98 321.98 195.98Q323.32 195.98 324.10 195.13Q324.88 194.28 324.88 192.84L324.88 184.44L327.04 184.44L327.04 192.84Q327.04 195.17 325.65 196.52Q324.26 197.88 321.98 197.88" fill="white" fill-opacity="0.7"/>
<path d="M336.40 197.88Q334.07 197.88 332.64 196.48Q331.22 195.07 331.22 192.60L331.22 189.48Q331.22 187.01 332.64 185.60Q334.07 184.20 336.40 184.20Q337.96 184.20 339.12 184.82Q340.29 185.45 340.94 186.58Q341.58 187.70 341.58 189.24L341.58 191.59L333.33 191.59L333.33 192.84Q333.33 194.30 334.17 195.16Q335.01 196.01 336.40 196.01Q337.60 196.01 338.38 195.54Q339.16 195.07 339.33 194.28L341.49 194.28Q341.27 195.94 339.88 196.91Q338.49 197.88 336.40 197.88M333.33 189.24L333.33 189.91L339.47 189.91L339.47 189.24Q339.47 187.68 338.67 186.83Q337.86 185.98 336.40 185.98Q334.94 185.98 334.13 186.83Q333.33 187.68 333.33 189.24" fill="white" fill-opacity="0.7"/>
<path d="M348.45 197.64L346.29 197.64L346.29 184.44L348.45 184.44L348.45 186.96L348.50 186.96Q348.66 185.69 349.58 184.94Q350.49 184.20 352.02 184.20Q354.09 184.20 355.20 185.44Q356.32 186.67 356.32 188.95L356.32 190.08L354.16 190.08L354.16 188.95Q354.16 186.07 351.35 186.07Q349.94 186.07 349.19 186.89Q348.45 187.70 348.45 189.24" fill="white" fill-opacity="0.7"/>
<path d="M364.53 201.96L362.27 201.96L364.22 196.82L359.30 184.44L361.62 184.44L364.74 192.60Q364.94 193.08 365.10 193.61Q365.27 194.14 365.34 194.52Q365.42 194.14 365.58 193.61Q365.75 193.08 365.92 192.60L368.82 184.44L371.10 184.44" fill="white" fill-opacity="0.7"/>
<path d="M385.72 197.64L374.44 197.64L374.44 195.67L379.12 195.67L379.12 186.41L374.92 186.41L374.92 184.44L381.28 184.44L381.28 195.67L385.72 195.67L385.72 197.64M379.96 182.06Q379.17 182.06 378.71 181.66Q378.26 181.25 378.26 180.55Q378.26 179.83 378.71 179.41Q379.17 178.99 379.96 178.99Q380.75 178.99 381.21 179.41Q381.66 179.83 381.66 180.55Q381.66 181.25 381.21 181.66Q380.75 182.06 379.96 182.06" fill="white" fill-opacity="0.7"/>
<path d="M391.17 197.64L389.01 197.64L389.01 184.44L391.17 184.44L391.17 186.96L391.19 186.96Q391.36 185.64 392.27 184.92Q393.18 184.20 394.70 184.20Q396.69 184.20 397.86 185.42Q399.04 186.65 399.04 188.76L399.04 197.64L396.88 197.64L396.88 189.14Q396.88 187.63 396.12 186.83Q395.37 186.02 394.07 186.02Q392.73 186.02 391.95 186.86Q391.17 187.70 391.17 189.24" fill="white" fill-opacity="0.7"/>
<path d="M408.76 201.96L405.06 201.96L405.06 199.99L408.78 199.99Q409.91 199.99 410.56 199.36Q411.21 198.72 411.21 197.64L411.21 196.44L411.26 194.28L411.18 194.28Q410.99 195.46 410.06 196.09Q409.12 196.73 407.70 196.73Q405.66 196.73 404.49 195.43Q403.31 194.14 403.31 191.88L403.31 189.10Q403.31 186.84 404.49 185.52Q405.66 184.20 407.70 184.20Q409.12 184.20 410.06 184.87Q410.99 185.54 411.18 186.72L411.23 186.72L411.23 184.44L413.37 184.44L413.37 197.64Q413.37 199.63 412.13 200.80Q410.90 201.96 408.76 201.96M408.35 194.93Q409.70 194.93 410.46 194.09Q411.23 193.25 411.23 191.76L411.23 189.24Q411.23 187.75 410.46 186.91Q409.70 186.07 408.35 186.07Q406.98 186.07 406.23 186.86Q405.47 187.66 405.47 189L405.47 192Q405.47 193.34 406.23 194.14Q406.98 194.93 408.35 194.93" fill="white" fill-opacity="0.7"/>
<path d="M437.20 197.83Q434.82 197.83 433.42 196.44Q432.02 195.05 432.02 192.55L432.02 189.53Q432.02 187.01 433.41 185.63Q434.80 184.25 437.20 184.25Q439.60 184.25 440.99 185.63Q442.38 187.01 442.38 189.53L442.38 192.55Q442.38 195.05 440.98 196.44Q439.58 197.83 437.20 197.83M437.20 195.91Q438.62 195.91 439.42 195.12Q440.22 194.33 440.22 192.79L440.22 189.29Q440.22 187.75 439.42 186.96Q438.62 186.17 437.20 186.17Q435.81 186.17 434.99 186.96Q434.18 187.75 434.18 189.29L434.18 192.79Q434.18 194.33 434.99 195.12Q435.81 195.91 437.20 195.91" fill="white" fill-opacity="0.7"/>
<path d="M451.72 197.64L449.56 197.64L449.56 188.21L445.72 188.21L445.72 186.24L449.56 186.24L449.56 183.48Q449.56 181.92 450.54 181.02Q451.53 180.12 453.26 180.12L457.12 180.12L457.12 182.09L453.26 182.09Q451.72 182.09 451.72 183.48L451.72 186.24L457.12 186.24L457.12 188.21L451.72 188.21" fill="white" fill-opacity="0.7"/>
<path d="M480.59 197.88Q478.19 197.88 476.80 196.54Q475.41 195.19 475.41 192.84L475.41 184.92Q475.41 182.57 476.80 181.22Q478.19 179.88 480.59 179.88Q482.94 179.88 484.34 181.24Q485.73 182.59 485.73 184.92L483.57 184.92Q483.57 183.43 482.79 182.63Q482.01 181.82 480.59 181.82Q479.18 181.82 478.37 182.63Q477.57 183.43 477.57 184.92L477.57 192.84Q477.57 194.33 478.37 195.13Q479.18 195.94 480.59 195.94Q482.01 195.94 482.79 195.13Q483.57 194.33 483.57 192.84L485.73 192.84Q485.73 195.17 484.34 196.52Q482.94 197.88 480.59 197.88" fill="white" fill-opacity="0.7"/>
<path d="M494.80 197.83Q492.42 197.83 491.02 196.44Q489.62 195.05 489.62 192.55L489.62 189.53Q489.62 187.01 491.01 185.63Q492.40 184.25 494.80 184.25Q497.20 184.25 498.59 185.63Q499.98 187.01 499.98 189.53L499.98 192.55Q499.98 195.05 498.58 196.44Q497.18 197.83 494.80 197.83M494.80 195.91Q496.22 195.91 497.02 195.12Q497.82 194.33 497.82 192.79L497.82 189.29Q497.82 187.75 497.02 186.96Q496.22 186.17 494.80 186.17Q493.41 186.17 492.59 186.96Q491.78 187.75 491.78 189.29L491.78 192.79Q491.78 194.33 492.59 195.12Q493.41 195.91 494.80 195.91" fill="white" fill-opacity="0.7"/>
<path d="M505.46 197.64L503.44 197.64L503.44 184.44L505.31 184.44L505.31 186.19L505.36 186.19Q505.48 185.30 506.07 184.75Q506.66 184.20 507.57 184.20Q508.43 184.20 509.03 184.70Q509.63 185.21 509.90 186.07L509.92 186.07Q510.09 185.21 510.68 184.70Q511.26 184.20 512.18 184.20Q513.45 184.20 514.20 185.15Q514.96 186.10 514.96 187.61L514.96 197.64L512.94 197.64L512.94 187.58Q512.94 186.79 512.56 186.32Q512.18 185.86 511.50 185.86Q510.86 185.86 510.47 186.31Q510.09 186.77 510.09 187.56L510.09 197.64L508.31 197.64L508.31 187.58Q508.31 186.79 507.93 186.32Q507.54 185.86 506.90 185.86Q506.22 185.86 505.84 186.31Q505.46 186.77 505.46 187.56" fill="white" fill-opacity="0.7"/>
<path d="M519.86 197.64L517.84 197.64L517.84 184.44L519.71 184.44L519.71 186.19L519.76 186.19Q519.88 185.30 520.47 184.75Q521.06 184.20 521.97 184.20Q522.83 184.20 523.43 184.70Q524.03 185.21 524.30 186.07L524.32 186.07Q524.49 185.21 525.08 184.70Q525.66 184.20 526.58 184.20Q527.85 184.20 528.60 185.15Q529.36 186.10 529.36 187.61L529.36 197.64L527.34 197.64L527.34 187.58Q527.34 186.79 526.96 186.32Q526.58 185.86 525.90 185.86Q525.26 185.86 524.87 186.31Q524.49 186.77 524.49 187.56L524.49 197.64L522.71 197.64L522.71 187.58Q522.71 186.79 522.33 186.32Q521.94 185.86 521.30 185.86Q520.62 185.86 520.24 186.31Q519.86 186.77 519.86 187.56" fill="white" fill-opacity="0.7"/>
<path d="M538 197.83Q535.62 197.83 534.22 196.44Q532.82 195.05 532.82 192.55L532.82 189.53Q532.82 187.01 534.21 185.63Q535.60 184.25 538 184.25Q540.40 184.25 541.79 185.63Q543.18 187.01 543.18 189.53L543.18 192.55Q543.18 195.05 541.78 196.44Q540.38 197.83 538 197.83M538 195.91Q539.42 195.91 540.22 195.12Q541.02 194.33 541.02 192.79L541.02 189.29Q541.02 187.75 540.22 186.96Q539.42 186.17 538 186.17Q536.61 186.17 535.79 186.96Q534.98 187.75 534.98 189.29L534.98 192.79Q534.98 194.33 535.79 195.12Q536.61 195.91 538 195.91" fill="white" fill-opacity="0.7"/>
<path d="M549.57 197.64L547.41 197.64L547.41 184.44L549.57 184.44L549.57 186.96L549.59 186.96Q549.76 185.64 550.67 184.92Q551.58 184.20 553.10 184.20Q555.09 184.20 556.26 185.42Q557.44 186.65 557.44 188.76L557.44 197.64L555.28 197.64L555.28 189.14Q555.28 187.63 554.52 186.83Q553.77 186.02 552.47 186.02Q551.13 186.02 550.35 186.86Q549.57 187.70 549.57 189.24" fill="white" fill-opacity="0.7"/>
<path d="M567.33 197.83L566.27 197.83Q564.06 197.83 562.85 196.84Q561.64 195.84 561.64 194.02L563.80 194.02Q563.80 194.93 564.45 195.44Q565.10 195.96 566.27 195.96L567.33 195.96Q568.53 195.96 569.19 195.43Q569.85 194.90 569.85 193.94Q569.85 192.24 568.29 192.02L564.64 191.50Q563.30 191.30 562.55 190.38Q561.81 189.46 561.81 187.94Q561.81 186.22 563 185.23Q564.18 184.25 566.27 184.25L567.33 184.25Q569.25 184.25 570.46 185.20Q571.67 186.14 571.77 187.68L569.58 187.68Q569.54 186.98 568.92 186.53Q568.31 186.07 567.33 186.07L566.27 186.07Q565.17 186.07 564.54 186.58Q563.92 187.08 563.92 187.94Q563.92 189.34 565.19 189.53L568.60 190.01Q571.96 190.49 571.96 193.94Q571.96 195.79 570.75 196.81Q569.54 197.83 567.33 197.83" fill="white" fill-opacity="0.7"/>
<path d="M597.06 197.64L594.11 197.64L589.60 180.12L591.81 180.12L594.81 192.05Q595.12 193.30 595.32 194.35Q595.53 195.41 595.62 195.96Q595.72 195.41 595.95 194.34Q596.18 193.27 596.49 192.02L599.37 180.12L601.60 180.12" fill="white" fill-opacity="0.7"/>
<path d="M610 197.83Q607.62 197.83 606.22 196.44Q604.82 195.05 604.82 192.55L604.82 189.53Q604.82 187.01 606.21 185.63Q607.60 184.25 610 184.25Q612.40 184.25 613.79 185.63Q615.18 187.01 615.18 189.53L615.18 192.55Q615.18 195.05 613.78 196.44Q612.38 197.83 610 197.83M610 195.91Q611.42 195.91 612.22 195.12Q613.02 194.33 613.02 192.79L613.02 189.29Q613.02 187.75 612.22 186.96Q611.42 186.17 610 186.17Q608.61 186.17 607.79 186.96Q606.98 187.75 606.98 189.29L606.98 192.79Q606.98 194.33 607.79 195.12Q608.61 195.91 610 195.91" fill="white" fill-opacity="0.7"/>
<path d="M629.56 197.64L625.72 197.64Q624.09 197.64 623.10 196.69Q622.12 195.74 622.12 194.16L622.12 186.41L618.33 186.41L618.33 184.44L622.12 184.44L622.12 180.72L624.28 180.72L624.28 184.44L629.68 184.44L629.68 186.41L624.28 186.41L624.28 194.16Q624.28 194.83 624.68 195.25Q625.07 195.67 625.72 195.67L629.56 195.67" fill="white" fill-opacity="0.7"/>
<path d="M638.80 197.88Q636.47 197.88 635.04 196.48Q633.62 195.07 633.62 192.60L633.62 189.48Q633.62 187.01 635.04 185.60Q636.47 184.20 638.80 184.20Q640.36 184.20 641.52 184.82Q642.69 185.45 643.34 186.58Q643.98 187.70 643.98 189.24L643.98 191.59L635.73 191.59L635.73 192.84Q635.73 194.30 636.57 195.16Q637.41 196.01 638.80 196.01Q640 196.01 640.78 195.54Q641.56 195.07 641.73 194.28L643.89 194.28Q643.67 195.94 642.28 196.91Q640.89 197.88 638.80 197.88M635.73 189.24L635.73 189.91L641.87 189.91L641.87 189.24Q641.87 187.68 641.07 186.83Q640.26 185.98 638.80 185.98Q637.34 185.98 636.53 186.83Q635.73 187.68 635.73 189.24" fill="white" fill-opacity="0.7"/>
<path d="M653.73 197.83L652.67 197.83Q650.46 197.83 649.25 196.84Q648.04 195.84 648.04 194.02L650.20 194.02Q650.20 194.93 650.85 195.44Q651.50 195.96 652.67 195.96L653.73 195.96Q654.93 195.96 655.59 195.43Q656.25 194.90 656.25 193.94Q656.25 192.24 654.69 192.02L651.04 191.50Q649.70 191.30 648.95 190.38Q648.21 189.46 648.21 187.94Q648.21 186.22 649.40 185.23Q650.58 184.25 652.67 184.25L653.73 184.25Q655.65 184.25 656.86 185.20Q658.07 186.14 658.17 187.68L655.98 187.68Q655.94 186.98 655.32 186.53Q654.71 186.07 653.73 186.07L652.67 186.07Q651.57 186.07 650.94 186.58Q650.32 187.08 650.32 187.94Q650.32 189.34 651.59 189.53L655 190.01Q658.36 190.49 658.36 193.94Q658.36 195.79 657.15 196.81Q655.94 197.83 653.73 197.83" fill="white" fill-opacity="0.7"/>
<path d="M681.23 197.88Q679.26 197.88 678.08 196.56Q676.89 195.24 676.89 192.98L676.89 189.12Q676.89 186.84 678.06 185.52Q679.24 184.20 681.23 184.20Q682.72 184.20 683.69 184.94Q684.66 185.69 684.86 186.96L684.88 186.96L684.83 183.96L684.83 180.12L686.99 180.12L686.99 197.64L684.83 197.64L684.83 195.12L684.81 195.12Q684.64 196.42 683.68 197.15Q682.72 197.88 681.23 197.88M681.95 196.01Q683.30 196.01 684.06 195.17Q684.83 194.33 684.83 192.84L684.83 189.24Q684.83 187.75 684.06 186.91Q683.30 186.07 681.95 186.07Q680.58 186.07 679.82 186.78Q679.05 187.49 679.05 189.12L679.05 192.96Q679.05 194.57 679.82 195.29Q680.58 196.01 681.95 196.01" fill="white" fill-opacity="0.7"/>
<path d="M695.25 197.88Q693.21 197.88 692.01 196.74Q690.81 195.60 690.81 193.75Q690.81 192.53 691.36 191.62Q691.91 190.70 692.90 190.19Q693.88 189.67 695.15 189.67L699.23 189.67L699.23 188.64Q699.23 186.07 696.42 186.07Q695.18 186.07 694.41 186.53Q693.64 186.98 693.59 187.80L691.43 187.80Q691.55 186.24 692.88 185.22Q694.22 184.20 696.42 184.20Q698.82 184.20 700.11 185.35Q701.39 186.50 701.39 188.57L701.39 197.64L699.26 197.64L699.26 195.24L699.21 195.24Q699.02 196.46 697.98 197.17Q696.95 197.88 695.25 197.88M695.78 196.06Q697.36 196.06 698.30 195.29Q699.23 194.52 699.23 193.20L699.23 191.35L695.39 191.35Q694.34 191.35 693.68 191.99Q693.02 192.62 693.02 193.68Q693.02 194.78 693.75 195.42Q694.48 196.06 695.78 196.06" fill="white" fill-opacity="0.7"/>
<path d="M715.96 197.64L712.12 197.64Q710.49 197.64 709.50 196.69Q708.52 195.74 708.52 194.16L708.52 186.41L704.73 186.41L704.73 184.44L708.52 184.44L708.52 180.72L710.68 180.72L710.68 184.44L716.08 184.44L716.08 186.41L710.68 186.41L710.68 194.16Q710.68 194.83 711.08 195.25Q711.47 195.67 712.12 195.67L715.96 195.67" fill="white" fill-opacity="0.7"/>
<path d="M724.05 197.88Q722.01 197.88 720.81 196.74Q719.61 195.60 719.61 193.75Q719.61 192.53 720.16 191.62Q720.71 190.70 721.70 190.19Q722.68 189.67 723.95 189.67L728.03 189.67L728.03 188.64Q728.03 186.07 725.22 186.07Q723.98 186.07 723.21 186.53Q722.44 186.98 722.39 187.80L720.23 187.80Q720.35 186.24 721.68 185.22Q723.02 184.20 725.22 184.20Q727.62 184.20 728.91 185.35Q730.19 186.50 730.19 188.57L730.19 197.64L728.06 197.64L728.06 195.24L728.01 195.24Q727.82 196.46 726.78 197.17Q725.75 197.88 724.05 197.88M724.58 196.06Q726.16 196.06 727.10 195.29Q728.03 194.52 728.03 193.20L728.03 191.35L724.19 191.35Q723.14 191.35 722.48 191.99Q721.82 192.62 721.82 193.68Q721.82 194.78 722.55 195.42Q723.28 196.06 724.58 196.06" fill="white" fill-opacity="0.7"/>
<path d="M739.60 197.88Q738.71 197.88 738.17 197.35Q737.63 196.82 737.63 195.98Q737.63 195.10 738.17 194.54Q738.71 193.99 739.60 193.99Q740.49 193.99 741.03 194.54Q741.57 195.10 741.57 195.98Q741.57 196.82 741.03 197.35Q740.49 197.88 739.60 197.88" fill="white" fill-opacity="0.7"/>
<path d="M79.95 136.06L70.45 136.06L70.45 65.98L93.20 65.98Q99.92 65.98 104.82 68.57Q109.71 71.16 112.40 75.82Q115.09 80.48 115.09 86.91Q115.09 93.24 112.40 97.90Q109.71 102.56 104.77 105.15Q99.82 107.74 93.20 107.74L79.95 107.74L79.95 136.06M79.95 74.43L79.95 99.29L93.20 99.29Q98.77 99.29 102.03 95.88Q105.30 92.48 105.30 86.91Q105.30 81.24 102.03 77.84Q98.77 74.43 93.20 74.43L79.95 74.43M133.71 136.06L124.02 136.06L142.16 65.98L154.74 65.98L172.78 136.06L163.09 136.06L158.67 117.82L138.13 117.82L133.71 136.06M145.14 88.92L140.05 109.95L156.75 109.95L151.76 89.02Q150.32 83.26 149.46 79.23Q148.59 75.20 148.40 73.76Q148.21 75.20 147.34 79.23Q146.48 83.26 145.14 88.92M195.15 136.06L185.74 136.06L185.74 65.98L207.44 65.98Q213.87 65.98 218.67 68.52Q223.47 71.07 226.16 75.63Q228.85 80.19 228.85 86.33Q228.85 93.44 225.25 98.52Q221.65 103.61 215.70 105.72L229.81 136.06L219.34 136.06L206 106.78L195.15 106.78L195.15 136.06M195.15 74.43L195.15 98.33L207.44 98.33Q212.82 98.33 215.94 95.07Q219.06 91.80 219.06 86.43Q219.06 80.96 215.89 77.69Q212.72 74.43 207.44 74.43L195.15 74.43M287.79 136.06L247.09 136.06L247.09 65.98L256.59 65.98L256.59 127.42L287.79 127.42L287.79 136.06M340.30 136.06L302.10 136.06L302.10 127.42L316.40 127.42L316.40 74.62L302.10 74.62L302.10 65.98L340.30 65.98L340.30 74.62L326 74.62L326 127.42L340.30 127.42L340.30 136.06M364.11 136.06L354.42 136.06L372.56 65.98L385.14 65.98L403.18 136.06L393.49 136.06L389.07 117.82L368.53 117.82L364.11 136.06M375.54 88.92L370.45 109.95L387.15 109.95L382.16 89.02Q380.72 83.26 379.86 79.23Q378.99 75.20 378.80 73.76Q378.61 75.20 377.74 79.23Q376.88 83.26 375.54 88.92M423.15 136.06L414.13 136.06L414.13 65.98L427.57 65.98L436.21 96.22L445.23 65.98L458.77 65.98L458.77 136.06L449.65 136.06L449.65 103.90Q449.65 98.81 449.84 92.62Q450.03 86.43 450.37 80.24Q450.70 74.04 451.09 69.05L440.14 104.96L432.08 104.96L421.52 69.92Q422.38 76.92 422.77 85.52Q423.15 94.11 423.15 103.90L423.15 136.06M515.31 136.06L474.51 136.06L474.51 65.98L515.31 65.98L515.31 74.52L483.92 74.52L483.92 95.36L511.95 95.36L511.95 103.61L483.92 103.61L483.92 127.52L515.31 127.52L515.31 136.06M539.98 136.06L531.06 136.06L531.06 65.98L543.34 65.98L564.27 125.12Q563.98 122.62 563.74 118.92Q563.50 115.23 563.36 111.24Q563.22 107.26 563.22 103.71L563.22 65.98L572.24 65.98L572.24 136.06L559.86 136.06L539.12 76.92Q539.31 79.42 539.50 83.02Q539.70 86.62 539.84 90.56Q539.98 94.49 539.98 97.95L539.98 136.06MNaN 136.06L604.50 136.06L604.50 74.62L585.49 74.62L585.49 65.98L632.91 65.98L632.91 74.62LNaN 74.62LNaN 136.06M725.17 137.02Q715.47 137.02 709.76 131.60Q704.05 126.17 704.05 116.67L704.05 85.28Q704.05 75.87 709.76 70.44Q715.47 65.02 725.17 65.02Q734.77 65.02 740.48 70.49Q746.19 75.96 746.19 85.28L736.69 85.28Q736.69 79.61 733.62 76.54Q730.54 73.47 725.17 73.47Q719.70 73.47 716.62 76.54Q713.55 79.61 713.55 85.28L713.55 116.67Q713.55 122.43 716.62 125.50Q719.70 128.57 725.17 128.57Q730.54 128.57 733.62 125.50Q736.69 122.43 736.69 116.67L746.19 116.67Q746.19 126.08 740.48 131.55Q734.77 137.02 725.17 137.02MNaN 137.02Q772.40 137.02 766.83 131.45Q761.26 125.88 761.26 115.71L761.26 86.24Q761.26 76.16 766.83 70.59Q772.40 65.02 NaN 65.02Q791.60 65.02 797.17 70.54Q802.74 76.06 802.74 86.24L802.74 115.71Q802.74 125.88 797.17 131.45Q791.60 137.02 NaN 137.02MNaN 128.57Q787.38 128.57 790.30 125.50Q793.23 122.43 793.23 116.67L793.23 85.28Q793.23 79.61 790.35 76.54Q787.47 73.47 NaN 73.47Q776.53 73.47 773.65 76.54Q770.77 79.61 770.77 85.28L770.77 116.67Q770.77 122.43 773.70 125.50Q776.62 128.57 NaN 128.57M826.35 136.06L817.33 136.06L817.33 65.98L830.77 65.98L839.41 96.22L848.43 65.98L861.97 65.98L861.97 136.06L852.85 136.06L852.85 103.90Q852.85 98.81 853.04 92.62Q853.23 86.43 853.57 80.24Q853.90 74.04 854.29 69.05L843.34 104.96L835.28 104.96L824.72 69.92Q825.58 76.92 825.97 85.52Q826.35 94.11 826.35 103.90L826.35 136.06M883.95 136.06L874.93 136.06L874.93 65.98L888.37 65.98L897.01 96.22L906.03 65.98L919.57 65.98L919.57 136.06L910.45 136.06L910.45 103.90Q910.45 98.81 910.64 92.62Q910.83 86.43 911.17 80.24Q911.50 74.04 911.89 69.05L900.94 104.96L892.88 104.96L882.32 69.92Q883.18 76.92 883.57 85.52Q883.95 94.11 883.95 103.90L883.95 136.06M954.80 137.02Q945.20 137.02 939.63 131.45Q934.06 125.88 934.06 115.71L934.06 86.24Q934.06 76.16 939.63 70.59Q945.20 65.02 954.80 65.02Q964.40 65.02 969.97 70.54Q975.54 76.06 975.54 86.24L975.54 115.71Q975.54 125.88 969.97 131.45Q964.40 137.02 954.80 137.02M954.80 128.57Q960.18 128.57 963.10 125.50Q966.03 122.43 966.03 116.67L966.03 85.28Q966.03 79.61 963.15 76.54Q960.27 73.47 954.80 73.47Q949.33 73.47 946.45 76.54Q943.57 79.61 943.57 85.28L943.57 116.67Q943.57 122.43 946.50 125.50Q949.42 128.57 954.80 128.57M1000.78 136.06L991.86 136.06L991.86 65.98L1004.14 65.98L1025.07 125.12Q1024.78 122.62 1024.54 118.92Q1024.30 115.23 1024.16 111.24Q1024.02 107.26 1024.02 103.71L1024.02 65.98L1033.04 65.98L1033.04 136.06L1020.66 136.06L999.92 76.92Q1000.11 79.42 1000.30 83.02Q1000.50 86.62 1000.64 90.56Q1000.78 94.49 1000.78 97.95L1000.78 136.06M1070.38 137.02Q1060.02 137.02 1053.87 131.60Q1047.73 126.17 1047.73 116.67L1057.23 116.67Q1057.23 122.24 1060.78 125.40Q1064.34 128.57 1070.38 128.57Q1076.14 128.57 1079.55 125.36Q1082.96 122.14 1082.96 116.76Q1082.96 112.73 1080.75 109.71Q1078.54 106.68 1074.51 105.63L1064.14 102.84Q1057.33 100.92 1053.34 95.88Q1049.36 90.84 1049.36 83.93Q1049.36 78.27 1051.90 74Q1054.45 69.72 1059.06 67.37Q1063.66 65.02 1069.71 65.02Q1075.86 65.02 1080.51 67.37Q1085.17 69.72 1087.76 73.95Q1090.35 78.17 1090.35 83.74L1080.94 83.74Q1080.94 79.13 1077.82 76.25Q1074.70 73.37 1069.71 73.37Q1064.72 73.37 1061.70 76.25Q1058.67 79.13 1058.67 83.74Q1058.67 87.48 1060.69 90.03Q1062.70 92.57 1066.35 93.63L1077.01 96.51Q1084.21 98.43 1088.24 103.85Q1092.27 109.28 1092.27 116.76Q1092.27 122.91 1089.58 127.47Q1086.90 132.03 1081.95 134.52Q1077.01 137.02 1070.38 137.02M1133.94 136.06L1121.17 136.06L1103.22 65.98L1113.01 65.98L1124.62 113.21Q1125.78 117.72 1126.59 121.90Q1127.41 126.08 1127.79 128.28Q1128.08 126.08 1128.99 121.85Q1129.90 117.63 1130.96 113.12L1142.19 65.98L1151.98 65.98L1133.94 136.06M1185.20 137.02Q1175.60 137.02 1170.03 131.45Q1164.46 125.88 1164.46 115.71L1164.46 86.24Q1164.46 76.16 1170.03 70.59Q1175.60 65.02 1185.20 65.02Q1194.80 65.02 1200.37 70.54Q1205.94 76.06 1205.94 86.24L1205.94 115.71Q1205.94 125.88 1200.37 131.45Q1194.80 137.02 1185.20 137.02M1185.20 128.57Q1190.58 128.57 1193.50 125.50Q1196.43 122.43 1196.43 116.67L1196.43 85.28Q1196.43 79.61 1193.55 76.54Q1190.67 73.47 1185.20 73.47Q1179.73 73.47 1176.85 76.54Q1173.97 79.61 1173.97 85.28L1173.97 116.67Q1173.97 122.43 1176.90 125.50Q1179.82 128.57 1185.20 128.57M1247.60 136.06L1238.10 136.06L1238.10 74.62L1219.09 74.62L1219.09 65.98L1266.51 65.98L1266.51 74.62L1247.60 74.62L1247.60 136.06M1321.71 136.06L1280.91 136.06L1280.91 65.98L1321.71 65.98L1321.71 74.52L1290.32 74.52L1290.32 95.36L1318.35 95.36L1318.35 103.61L1290.32 103.61L1290.32 127.52L1321.71 127.52L1321.71 136.06M1358.38 137.02Q1348.02 137.02 1341.87 131.60Q1335.73 126.17 1335.73 116.67L1345.23 116.67Q1345.23 122.24 1348.78 125.40Q1352.34 128.57 1358.38 128.57Q1364.14 128.57 1367.55 125.36Q1370.96 122.14 1370.96 116.76Q1370.96 112.73 1368.75 109.71Q1366.54 106.68 1362.51 105.63L1352.14 102.84Q1345.33 100.92 1341.34 95.88Q1337.36 90.84 1337.36 83.93Q1337.36 78.27 1339.90 74Q1342.45 69.72 1347.06 67.37Q1351.66 65.02 1357.71 65.02Q1363.86 65.02 1368.51 67.37Q1373.17 69.72 1375.76 73.95Q1378.35 78.17 1378.35 83.74L1368.94 83.74Q1368.94 79.13 1365.82 76.25Q1362.70 73.37 1357.71 73.37Q1352.72 73.37 1349.70 76.25Q1346.67 79.13 1346.67 83.74Q1346.67 87.48 1348.69 90.03Q1350.70 92.57 1354.35 93.63L1365.01 96.51Q1372.21 98.43 1376.24 103.85Q1380.27 109.28 1380.27 116.76Q1380.27 122.91 1377.58 127.47Q1374.90 132.03 1369.95 134.52Q1365.01 137.02 1358.38 137.02" fill="url(#paint2_linear_0_1)"/>
<g id="Group 1">
<rect id="Rectangle 1" x="26" y="168" width="12" height="184" rx="5" fill="url(#paint3_linear_0_1)" fill-opacity="0.9"/>
</g>
<g id="Group 1_2">
<rect id="Rectangle 2" x="26" y="38" width="12" height="119" rx="5" fill="url(#paint4_linear_0_1)" fill-opacity="0.9"/>
</g>
<ellipse id="Ellipse 1" cx="148.5" cy="573" rx="215.5" ry="214" fill="url(#paint5_linear_0_1)" fill-opacity="0.4"/>
<rect id="Rectangle 3" x="1229" y="48" width="300" height="300" rx="25" fill="#FFFBFB" fill-opacity="0.9"/>
<g id="placeholder-logo"><g transform="translate(1229,48) translate(0.0,60.0) scale(1.2000)"><g fill="#666666">
  <path d="m88.05,27.65c-3.15,4 -3.2,51.2 -0.05,54.35c2.75,2.75 71.7,3.15 74.45,0.45c2.85,-2.9 2.3,-53.85 -0.65,-55.9c-1.95,-1.35 -7.15,-1.55 -36.95,-1.55l-34.7,0l-2.1,2.65zm69.45,3.35c0.65,0 1,8.6 1,23.75l0,23.75l-33,0l-33,0l-0.25,-23c-0.15,-12.6 -0.1,-23.45 0.15,-24.1c0.35,-0.85 8.9,-1.05 32.25,-0.75c17.55,0.2 32.3,0.35 32.85,0.35z"/>
  <path d="m99.15,37.3c-6.85,7.35 4.25,17.35 11.4,10.25c1.35,-1.35 2.45,-3.65 2.45,-5.05c0,-6.45 -9.35,-9.95 -13.85,-5.2z"/>
  <path d="m135,42.5c-0.7,0.85 -5.25,5.15 -10.1,9.6l-8.85,8.1l-3.2,-3.2l-3.15,-3.15l-6.35,6.3c-5.55,5.5 -6.35,6.75 -6.35,10.05l0,3.8l28.5,0l28.5,0l0,-8.6l0,-8.55l-8.15,-7.7c-9.35,-8.85 -9.15,-8.7 -10.85,-6.65zm7.25,15.2c0.95,0.9 1.75,2.9 1.75,4.45c6.35,-5.05 4.75,-7.15 4.9,-11.55c0.95,0 0,0 0,0l-6.65,7.1z"/>
  <path d="m53.65,110.75c0.1,4.8 0.45,8.65 0.75,8.5c0.35,-0.15 1.3,-0.25 2.1,-0.25c1.1,0 1.5,-1.2 1.5,-4.75l0,-4.75l3.25,5c4.9,7.5 6.2,6.75 6.55,-3.75c0.25,-8.15 0.15,-8.75 -1.7,-8.75c-1.65,0 -2.05,0.8 -2.3,4.75l-0.3,4.75l-2.8,-4.75c-4.85,-8.25 -7.25,-6.9 -7.05,4z"/>
  <path d="m91,108.9c0,9.65 0.3,10.1 6.1,10.1c5.8,0 7.15,-2.65 1.65,-3.2l-3.25,-0.3l-0.3,-6.75c-0.25,-5.95 -0.55,-6.75 -2.25,-6.75c-1.75,0 -1.95,0.7 -1.95,6.9z"/>
  <path d="m151,102.45c0,0.25 1,2.15 2.25,4.2c1.2,2.1 2.45,5.8 2.75,8.25c0.65,5.9 4,6.95 4,1.25c0.05,-2.1 1.25,-5.85 2.95,-8.9l2.9,-5.25l-2.5,0c-1.8,0 -2.8,0.85 -3.75,3.1l-1.3,3.05l-1.25,-3.05c-1.1,-2.6 -6.05,-4.8 -6.05,-2.65z"/>
  <path d="m191,107.45c0,9.05 3.4,8.85 4.25,-0.2c0.45,-5 0.35,-5.25 -1.9,-5.25c-2.2,0 -2.35,0.4 -2.35,5.45z"/>
  <path d="m180.8,104.75c-1.3,5.35 0.65,13.6 3.45,14.35c2.3,0.6 2.75,0.4 2.75,-1.2c0,-1.05 -0.45,-1.9 -1,-1.9c-0.55,0 -1,-1.6 -1,-3.5c0,-1.95 0.45,-3.5 1,-3.5c0.55,0 1,-0.7 1,-1.5c0,-0.85 -0.45,-1.5 -1,-1.5c-0.55,0 -1,-0.7 -1,-1.5c0,-2.1 -3.65,-1.9 -4.2,0.25z"/>
  <path d="m71.55,106.55c-2.2,2.25 -2.05,9.7 0.3,11.8c4.5,4.1 10.15,0.75 10.15,-6.1c0,-4.85 -2,-7.25 -6,-7.25c-1.55,0 -3.55,0.7 -4.45,1.55zm6.25,5.8c0.25,3.05 0,3.65 -1.6,3.65c-2.3,0 -3.25,-2.65 -2.05,-5.85c1.25,-3.35 3.3,-2.1 3.65,2.2z"/>
  <path d="m105.75,106.1c-2.5,1.45 -2.45,9.95 0.1,12.25c4.3,3.9 10.15,0.35 10.15,-6.2c0,-6 -5.15,-9.05 -10.25,-6.05zm6.05,6.25c0.25,3.05 0,3.65 -1.6,3.65c-2.3,0 -3.25,-2.65 -2.05,-5.85c1.25,-3.35 3.3,-2.1 3.65,2.2z"/>
  <path d="m119.2,106.2c-3.8,3.8 -0.4,12.55 4.4,11.35c1.9,-0.45 2.45,-0.3 2.15,0.65c-0.25,0.7 -1.55,1.2 -2.85,1.1c-4.05,-0.3 -5.35,0.45 -3.85,2.25c0.85,1.05 2.6,1.45 5.35,1.25l4.1,-0.3l0.3,-8.75l0.3,-8.75l-4.35,0c-2.4,0 -4.9,0.55 -5.55,1.2zm6.6,4.45c0.4,2.85 -2.15,4.85 -3.75,2.95c-0.9,-1.1 -0.9,-2 -0.05,-3.6c1.35,-2.5 3.4,-2.15 3.8,0.65z"/>
  <path d="m133.55,106.55c-2.2,2.25 -2.05,9.7 0.3,11.8c4.5,4.1 10.15,0.75 10.15,-6.1c0,-4.85 -2,-7.25 -6,-7.25c-1.55,0 -3.55,0.7 -4.45,1.55zm6.25,5.8c0.25,3.05 0,3.65 -1.6,3.65c-2.3,0 -3.25,-2.65 -2.05,-5.85c1.25,-3.35 3.3,-2.1 3.65,2.2z"/>
  <path d="m167.65,106.85c-3.9,4.3 -0.75,13.15 4.7,13.15c2.4,0 5.65,-2.75 5.65,-4.85c0,-1.4 -2.65,-1.55 -3.5,-0.15c-0.95,1.55 -4.5,1.15 -4.5,-0.5c0,-1.1 1.1,-1.5 4,-1.5c3.15,0 4,-0.35 4,-1.8c0,-5.3 -6.85,-8.25 -10.35,-4.35z"/>
  <path d="m191,117.5c0,2.15 0.4,2.6 2.25,2.3c1.5,-0.2 2.25,-1 2.25,-2.3c0,-1.3 -0.75,-2.1 -2.25,-2.3c-1.85,-0.3 -2.25,0.15 -2.25,2.3z"/>
 </g></g></g>
</g>
<defs>
<linearGradient id="paint0_linear_0_1" x1="0" y1="198" x2="1584" y2="198" gradientUnits="userSpaceOnUse">
<stop stop-color="#3D052C"/>
<stop offset="1"/>
</linearGradient>
<linearGradient id="paint1_linear_0_1" x1="323" y1="-224" x2="323" y2="352" gradientUnits="userSpaceOnUse">
<stop stop-color="#28F6F2" stop-opacity="0.4"/>
<stop offset="1" stop-color="#17908E" stop-opacity="0.7"/>
</linearGradient>
<linearGradient id="paint2_linear_0_1" x1="148.5" y1="38" x2="148.5" y2="140" gradientUnits="userSpaceOnUse">
<stop stop-color="white"/>
<stop offset="1" stop-color="#999999"/>
</linearGradient>
<linearGradient id="paint3_linear_0_1" x1="38" y1="260" x2="26" y2="260" gradientUnits="userSpaceOnUse">
<stop stop-color="#D9D9D9"/>
<stop offset="1" stop-color="#737373"/>
</linearGradient>
<linearGradient id="paint4_linear_0_1" x1="38" y1="97.5" x2="26" y2="97.5" gradientUnits="userSpaceOnUse">
<stop stop-color="#D9D9D9"/>
<stop offset="1" stop-color="#737373"/>
</linearGradient>
<linearGradient id="paint5_linear_0_1" x1="27.5" y1="434.5" x2="148.5" y2="787" gradientUnits="userSpaceOnUse">
<stop stop-color="#2E21BC"/>
<stop offset="1" stop-color="#150F56"/>
</linearGradient>
<clipPath id="clip0_0_1">
<rect width="1584" height="396" fill="white"/>
</clipPath>
</defs>
</svg>
